<svg xmlns="http://www.w3.org/2000/svg" width="1900" height="2040" viewBox="0 0 1900 2040">
  <title>LNClassifier supplementary workflow DAGs</title>
  <desc>Independent benchmark and feature-generation workflows followed by explicit input-to-analysis-to-output rows. Uncertainty uses benchmark tables; statistical testing requires uncertainty and clusters; embeddings and RF/SHAP are separate computations.</desc>
  <defs>
    <marker id="arrow" markerWidth="8" markerHeight="8" refX="7" refY="3" orient="auto"><path d="M0,0 L7,3 L0,6 Z" fill="#64748b"/></marker>
    <style>
text{font-family:Inter,Arial,sans-serif;fill:#172033}
.title{font-size:28px;font-weight:700}
.subtitle,.panel-note{font-size:15px;fill:#526176}
.panel-title{font-size:20px;font-weight:700}
.node{stroke-width:2}
.label{font-size:15px;font-weight:600}
.small{font-size:14px;font-weight:400}
.file-format{font-family:ui-monospace,Consolas,monospace;font-size:14px;font-weight:400}
.edge{stroke:#64748b;stroke-width:2.5;fill:none;marker-end:url(#arrow)}
.edge-dash{stroke:#64748b;stroke-width:2.5;stroke-dasharray:8 7;fill:none;marker-end:url(#arrow)}
.legend{font-size:14px;fill:#526176}
</style>
  </defs>
  <rect width="1900" height="2040" fill="#ffffff"/>
  <text x="70" y="58" class="title" text-anchor="start">LNClassifier workflow DAGs</text>
  <text x="70" y="86" class="subtitle" text-anchor="start">Benchmark and feature generation run independently; their outputs converge for downstream analysis and publication.</text>
    <text x="70" y="108" class="subtitle" text-anchor="start">Shared annotation and assembly for B–D: GENCODE v47 · GRCh38</text>
    <g transform="translate(231 120)"><rect width="1438" height="187" rx="18" fill="#fcfbff" stroke="#cbd5e1"/><text x="25" y="37" class="panel-title" text-anchor="start">A · Independent revision-wt benchmark</text><text x="25" y="60" class="panel-note" text-anchor="start">Classifier benchmark, run independently of feature generation.</text><path d="M335 126 L357 126" class="edge"/><path d="M607 126 L629 126" class="edge"/><path d="M785 126 L807 126" class="edge"/><path d="M973 126 L995 126" class="edge"/><path d="M1203 126 L1225 126" class="edge"/><path d="M 25 90 H 317 L 335 108 V 162 H 25 Z" class="node" fill="#ffffff" stroke="#8768c5" stroke-width="2.5"/><path d="M 317 90 V 108 H 335" fill="none" stroke="#8768c5" stroke-width="2.5"/><text x="180.0" y="113.0" class="label" text-anchor="middle">Transcript sequences</text><text x="180.0" y="133.0" class="label" text-anchor="middle">+ annotations</text><text x="180.0" y="151.0" class="file-format" text-anchor="middle">.fa + .gtf</text><rect x="357" y="90" width="250" height="72" rx="10" class="node" fill="#f0eaff" stroke="#8768c5" stroke-width="2.5"/><text x="482.0" y="123.0" class="label" text-anchor="middle">Prepare dataset</text><text x="482.0" y="141.0" class="small" text-anchor="middle">v46 vs v47; CD-HIT</text><rect x="629" y="90" width="156" height="72" rx="10" class="node" fill="#f0eaff" stroke="#8768c5" stroke-width="2.5"/><text x="707.0" y="123.0" class="label" text-anchor="middle">Train models</text><text x="707.0" y="141.0" class="small" text-anchor="middle">9 classifiers</text><rect x="807" y="90" width="166" height="72" rx="10" class="node" fill="#f0eaff" stroke="#8768c5" stroke-width="2.5"/><text x="890.0" y="123.0" class="label" text-anchor="middle">Run inference</text><text x="890.0" y="141.0" class="small" text-anchor="middle">9 classifiers</text><rect x="995" y="90" width="208" height="72" rx="10" class="node" fill="#f0eaff" stroke="#8768c5" stroke-width="2.5"/><text x="1099.0" y="123.0" class="label" text-anchor="middle">Process tables</text><text x="1099.0" y="141.0" class="small" text-anchor="middle">Merge and summarize</text><path d="M 1225 90 H 1395 L 1413 108 V 162 H 1225 Z" class="node" fill="#ffffff" stroke="#8768c5" stroke-width="2.5"/><path d="M 1395 90 L 1413 108 L 1395 108 Z" fill="#8768c5" stroke="#8768c5" stroke-width="1"/><text x="1319.0" y="123.0" class="label" text-anchor="middle">Benchmark tables</text><text x="1319.0" y="141.0" class="file-format" text-anchor="middle">.tsv</text></g><g transform="translate(255 335)"><rect width="330" height="586" rx="18" fill="#fbfdff" stroke="#cbd5e1"/><text x="25" y="37" class="panel-title" text-anchor="start">B · TE feature generation</text><text x="25" y="60" class="panel-note" text-anchor="start">RepeatMasker annotation and</text><text x="25" y="78" class="panel-note" text-anchor="start">TE feature extraction</text><path d="M165 177 L165 201" class="edge"/><path d="M165 273 L165 297" class="edge"/><path d="M165 369 L165 393" class="edge"/><path d="M165 465 L165 489" class="edge"/><path d="M 25 105 H 287 L 305 123 V 177 H 25 Z" class="node" fill="#ffffff" stroke="#3787c5" stroke-width="2.5"/><path d="M 287 105 V 123 H 305" fill="none" stroke="#3787c5" stroke-width="2.5"/><text x="165.0" y="128.0" class="label" text-anchor="middle">Sequences + annotations</text><text x="165.0" y="148.0" class="label" text-anchor="middle">(DNA + RNA)</text><text x="165.0" y="166.0" class="file-format" text-anchor="middle">.fa + .gtf</text><rect x="45" y="201" width="240" height="72" rx="10" class="node" fill="#e8f3ff" stroke="#3787c5" stroke-width="2.5"/><text x="165.0" y="234.0" class="label" text-anchor="middle">Validate FASTA</text><text x="165.0" y="252.0" class="small" text-anchor="middle">IDs, lengths, headers</text><rect x="45" y="297" width="240" height="72" rx="10" class="node" fill="#e8f3ff" stroke="#3787c5" stroke-width="2.5"/><text x="165.0" y="330.0" class="label" text-anchor="middle">Run RepeatMasker</text><text x="165.0" y="348.0" class="small" text-anchor="middle">Annotate repeats</text><rect x="45" y="393" width="240" height="72" rx="10" class="node" fill="#e8f3ff" stroke="#3787c5" stroke-width="2.5"/><text x="165.0" y="426.0" class="label" text-anchor="middle">Merge and summarize</text><text x="165.0" y="444.0" class="small" text-anchor="middle">Counts, coverage and stats</text><path d="M 35 489 H 277 L 295 507 V 561 H 35 Z" class="node" fill="#ffffff" stroke="#3787c5" stroke-width="2.5"/><path d="M 277 489 L 295 507 L 277 507 Z" fill="#3787c5" stroke="#3787c5" stroke-width="1"/><text x="165.0" y="522.0" class="label" text-anchor="middle">REP features</text><text x="165.0" y="540.0" class="file-format" text-anchor="middle">.csv</text></g><g transform="translate(625 335)"><rect width="330" height="586" rx="18" fill="#fbfffc" stroke="#cbd5e1"/><text x="25" y="37" class="panel-title" text-anchor="start">C · Non-B DNA features</text><text x="25" y="60" class="panel-note" text-anchor="start">Motif generation and</text><text x="25" y="78" class="panel-note" text-anchor="start">exon-level features</text><path d="M165 177 L165 201" class="edge"/><path d="M165 273 L165 297" class="edge"/><path d="M165 369 L165 393" class="edge"/><path d="M165 465 L165 489" class="edge"/><path d="M 25 105 H 287 L 305 123 V 177 H 25 Z" class="node" fill="#ffffff" stroke="#45a36b" stroke-width="2.5"/><path d="M 287 105 V 123 H 305" fill="none" stroke="#45a36b" stroke-width="2.5"/><text x="165.0" y="138.0" class="label" text-anchor="middle">Assembly + annotations</text><text x="165.0" y="156.0" class="file-format" text-anchor="middle">.fa + .gtf</text><rect x="45" y="201" width="240" height="72" rx="10" class="node" fill="#eaf8ef" stroke="#45a36b" stroke-width="2.5"/><text x="165.0" y="234.0" class="label" text-anchor="middle">Build annotation BEDs</text><text x="165.0" y="252.0" class="small" text-anchor="middle">transcript + exon BEDs</text><rect x="45" y="297" width="240" height="72" rx="10" class="node" fill="#eaf8ef" stroke="#45a36b" stroke-width="2.5"/><text x="165.0" y="320.0" class="label" text-anchor="middle">Run G4Discovery</text><text x="165.0" y="340.0" class="label" text-anchor="middle">and pqsfinder</text><text x="165.0" y="358.0" class="small" text-anchor="middle">Annotate 9 non-B DNA motifs</text><rect x="45" y="393" width="240" height="72" rx="10" class="node" fill="#eaf8ef" stroke="#45a36b" stroke-width="2.5"/><text x="165.0" y="426.0" class="label" text-anchor="middle">Intersect and summarize</text><text x="165.0" y="444.0" class="small" text-anchor="middle">Counts, coverage and stats</text><path d="M 35 489 H 277 L 295 507 V 561 H 35 Z" class="node" fill="#ffffff" stroke="#45a36b" stroke-width="2.5"/><path d="M 277 489 L 295 507 L 277 507 Z" fill="#45a36b" stroke="#45a36b" stroke-width="1"/><text x="165.0" y="522.0" class="label" text-anchor="middle">NBD features</text><text x="165.0" y="540.0" class="file-format" text-anchor="middle">.csv</text></g><g transform="translate(995 335)"><rect width="650" height="538" rx="18" fill="#fffdf9" stroke="#cbd5e1"/><text x="25" y="37" class="panel-title" text-anchor="start">D · RNA structure and rG4 analysis</text><text x="25" y="60" class="panel-note" text-anchor="start">Separate outputs: rG4detector features + ScanFold2 features</text><path d="M330 177 L330 213" class="edge" style="marker-end:none"/><path d="M165 213 L495 213" class="edge" style="marker-end:none"/><path d="M495 213 L495 249" class="edge"/><path d="M165 213 L165 249" class="edge"/><path d="M495 321 L495 345" class="edge"/><path d="M165 321 L165 345" class="edge"/><path d="M165 417 L165 441" class="edge"/><path d="M495 417 L495 441" class="edge"/><path d="M 190 105 H 452 L 470 123 V 177 H 190 Z" class="node" fill="#ffffff" stroke="#d58b2b" stroke-width="2.5"/><path d="M 452 105 V 123 H 470" fill="none" stroke="#d58b2b" stroke-width="2.5"/><text x="330.0" y="138.0" class="label" text-anchor="middle">Transcript FASTA</text><text x="330.0" y="156.0" class="file-format" text-anchor="middle">.fa</text><rect x="375" y="249" width="240" height="72" rx="10" class="node" fill="#fff2df" stroke="#d58b2b" stroke-width="2.5"/><text x="495.0" y="282.0" class="label" text-anchor="middle">Run rG4detector</text><text x="495.0" y="300.0" class="small" text-anchor="middle">rG4 per-nucleotide scores</text><rect x="45" y="249" width="240" height="72" rx="10" class="node" fill="#fff2df" stroke="#d58b2b" stroke-width="2.5"/><text x="165.0" y="282.0" class="label" text-anchor="middle">Run ScanFold2</text><text x="165.0" y="300.0" class="small" text-anchor="middle">RNA base-pair prediction</text><rect x="375" y="345" width="240" height="72" rx="10" class="node" fill="#fff2df" stroke="#d58b2b" stroke-width="2.5"/><text x="495.0" y="378.0" class="label" text-anchor="middle">Merge and summarize</text><text x="495.0" y="396.0" class="small" text-anchor="middle">rG4 peak counts and stats</text><rect x="45" y="345" width="240" height="72" rx="10" class="node" fill="#fff2df" stroke="#d58b2b" stroke-width="2.5"/><text x="165.0" y="378.0" class="label" text-anchor="middle">Merge and summarize</text><text x="165.0" y="396.0" class="small" text-anchor="middle">Summarize base pairs</text><path d="M 35 441 H 277 L 295 459 V 513 H 35 Z" class="node" fill="#ffffff" stroke="#d58b2b" stroke-width="2.5"/><path d="M 277 441 L 295 459 L 277 459 Z" fill="#d58b2b" stroke="#d58b2b" stroke-width="1"/><text x="165.0" y="474.0" class="label" text-anchor="middle">ScanFold2 features</text><text x="165.0" y="492.0" class="file-format" text-anchor="middle">.tsv</text><path d="M 365 441 H 607 L 625 459 V 513 H 365 Z" class="node" fill="#ffffff" stroke="#d58b2b" stroke-width="2.5"/><path d="M 607 441 L 625 459 L 607 459 Z" fill="#d58b2b" stroke="#d58b2b" stroke-width="1"/><text x="495.0" y="474.0" class="label" text-anchor="middle">rG4detector features</text><text x="495.0" y="492.0" class="file-format" text-anchor="middle">.csv</text></g><g transform="translate(225 965)"><rect width="1450" height="997" rx="18" fill="#f8fafc" stroke="#cbd5e1"/><text x="30" y="37" class="panel-title" text-anchor="start">E · Feature integration and downstream analysis</text><text x="30" y="62" class="panel-note" text-anchor="start">Supplementary features are used in downstream analysis and RF/SHAP, independently of benchmark classifier training.</text><text x="30" y="85" class="panel-note" text-anchor="start">Read each row left to right. Repeated input names refer to the same data; each input list contains separate artifacts.</text><text x="30" y="125" class="small" text-anchor="start">REQUIRED INPUTS · REFERENCES</text><text x="595" y="125" class="small" text-anchor="start">COMPUTATION</text><text x="1020" y="125" class="small" text-anchor="start">RESULTS</text><rect x="1006" y="493" width="428" height="488" rx="12" fill="#e8f4f2"/><text x="1028" y="509" class="small" text-anchor="start">Publication outputs</text><path d="M530 201 L595 201" class="edge"/><path d="M955 201 L1020 201" class="edge"/><rect x="30" y="155" width="500" height="92" fill="#ffffff" stroke="#cbd5e1"/><text x="46" y="196" class="small" text-anchor="start">REP (B), NBD (C), rG4 + ScanFold2 (D) features</text><text x="46" y="215" class="small" text-anchor="start">Benchmark transcript index (A; coverage check)</text><rect x="595" y="155" width="360" height="92" rx="10" class="node" fill="#f8eaf2" stroke="#bc5c87" stroke-width="2.5"/><text x="775.0" y="198.0" class="label" text-anchor="middle">Merge supplementary features</text><text x="775.0" y="216.0" class="small" text-anchor="middle">Clean features and check coverage</text><path d="M 1020 155 H 1402 L 1420 173 V 247 H 1020 Z" class="node" fill="#ffffff" stroke="#36958c" stroke-width="2.5"/><path d="M 1402 155 L 1420 173 L 1402 173 Z" fill="#36958c" stroke="#36958c" stroke-width="1"/><text x="1220.0" y="198.0" class="label" text-anchor="middle">Supplementary matrix</text><text x="1220.0" y="216.0" class="file-format" text-anchor="middle">.tsv</text><path d="M530 321 L595 321" class="edge"/><path d="M955 321 L1020 321" class="edge"/><rect x="30" y="275" width="500" height="92" fill="#ffffff" stroke="#cbd5e1"/><text x="46" y="325" class="small" text-anchor="start">Benchmark tables (A)</text><rect x="595" y="275" width="360" height="92" rx="10" class="node" fill="#f8eaf2" stroke="#bc5c87" stroke-width="2.5"/><text x="775.0" y="308.0" class="label" text-anchor="middle">Compute uncertainty</text><text x="775.0" y="328.0" class="label" text-anchor="middle">and define groups</text><text x="775.0" y="346.0" class="small" text-anchor="middle">Metrics and group assignments</text><path d="M 1020 275 H 1402 L 1420 293 V 367 H 1020 Z" class="node" fill="#ffffff" stroke="#36958c" stroke-width="2.5"/><path d="M 1402 275 L 1420 293 L 1402 293 Z" fill="#36958c" stroke="#36958c" stroke-width="1"/><text x="1220.0" y="318.0" class="label" text-anchor="middle">Uncertainty results</text><text x="1220.0" y="336.0" class="file-format" text-anchor="middle">.tsv · metrics + groups</text><path d="M530 441 L595 441" class="edge"/><path d="M955 441 L1020 441" class="edge"/><rect x="30" y="395" width="500" height="92" fill="#ffffff" stroke="#cbd5e1"/><text x="46" y="436" class="small" text-anchor="start">Benchmark tables (A)</text><text x="46" y="455" class="small" text-anchor="start">Supplementary matrix</text><rect x="595" y="395" width="360" height="92" rx="10" class="node" fill="#f8eaf2" stroke="#bc5c87" stroke-width="2.5"/><text x="775.0" y="438.0" class="label" text-anchor="middle">Cluster features</text><text x="775.0" y="456.0" class="small" text-anchor="middle">Correlations and feature selection</text><path d="M 1020 395 H 1402 L 1420 413 V 487 H 1020 Z" class="node" fill="#ffffff" stroke="#36958c" stroke-width="2.5"/><path d="M 1402 395 L 1420 413 L 1402 413 Z" fill="#36958c" stroke="#36958c" stroke-width="1"/><text x="1220.0" y="438.0" class="label" text-anchor="middle">Feature clusters</text><text x="1220.0" y="456.0" class="file-format" text-anchor="middle">.csv + .txt</text><path d="M530 561 L595 561" class="edge"/><path d="M955 561 L1020 561" class="edge"/><rect x="30" y="515" width="500" height="92" fill="#ffffff" stroke="#cbd5e1"/><text x="46" y="537" class="small" text-anchor="start">Benchmark tables (A)</text><text x="46" y="556" class="small" text-anchor="start">Supplementary matrix</text><text x="46" y="575" class="small" text-anchor="start">Uncertainty results</text><text x="46" y="594" class="small" text-anchor="start">Feature clusters</text><rect x="595" y="515" width="360" height="92" rx="10" class="node" fill="#f8eaf2" stroke="#bc5c87" stroke-width="2.5"/><text x="775.0" y="548.0" class="label" text-anchor="middle">Compare groups</text><text x="775.0" y="568.0" class="label" text-anchor="middle">and plot results</text><text x="775.0" y="586.0" class="small" text-anchor="middle">Statistical tests and entropy plots</text><path d="M 1020 515 H 1402 L 1420 533 V 607 H 1020 Z" class="node" fill="#ffffff" stroke="#36958c" stroke-width="2.5"/><path d="M 1402 515 L 1420 533 L 1402 533 Z" fill="#36958c" stroke="#36958c" stroke-width="1"/><text x="1220.0" y="558.0" class="label" text-anchor="middle">Entropy figures + statistical tables</text><text x="1220.0" y="576.0" class="file-format" text-anchor="middle">.pdf + .csv + .tsv</text><path d="M530 681 L595 681" class="edge"/><path d="M955 681 L1020 681" class="edge"/><rect x="30" y="635" width="500" height="92" fill="#ffffff" stroke="#cbd5e1"/><text x="46" y="666" class="small" text-anchor="start">Benchmark tables (A)</text><text x="46" y="685" class="small" text-anchor="start">Supplementary matrix</text><text x="46" y="704" class="small" text-anchor="start">Uncertainty results</text><rect x="595" y="635" width="360" height="92" rx="10" class="node" fill="#f8eaf2" stroke="#bc5c87" stroke-width="2.5"/><text x="775.0" y="668.0" class="label" text-anchor="middle">Compute embeddings</text><text x="775.0" y="688.0" class="label" text-anchor="middle">and plot t-SNE</text><text x="775.0" y="706.0" class="small" text-anchor="middle">Uncertainty annotates the plot</text><path d="M 1020 635 H 1402 L 1420 653 V 727 H 1020 Z" class="node" fill="#ffffff" stroke="#36958c" stroke-width="2.5"/><path d="M 1402 635 L 1420 653 L 1402 653 Z" fill="#36958c" stroke="#36958c" stroke-width="1"/><text x="1220.0" y="678.0" class="label" text-anchor="middle">t-SNE figure</text><text x="1220.0" y="696.0" class="file-format" text-anchor="middle">.pdf</text><path d="M530 801 L595 801" class="edge"/><path d="M955 801 L1020 801" class="edge"/><rect x="30" y="755" width="500" height="92" fill="#ffffff" stroke="#cbd5e1"/><text x="46" y="777" class="small" text-anchor="start">Benchmark tables (A)</text><text x="46" y="796" class="small" text-anchor="start">Supplementary matrix</text><text x="46" y="815" class="small" text-anchor="start">Feature clusters</text><text x="46" y="834" class="small" text-anchor="start">Dataset splits (A)</text><rect x="595" y="755" width="360" height="92" rx="10" class="node" fill="#f8eaf2" stroke="#bc5c87" stroke-width="2.5"/><text x="775.0" y="798.0" class="label" text-anchor="middle">Train RF and compute SHAP</text><text x="775.0" y="816.0" class="small" text-anchor="middle">Aggregate explanations and plot</text><path d="M 1020 755 H 1402 L 1420 773 V 847 H 1020 Z" class="node" fill="#ffffff" stroke="#36958c" stroke-width="2.5"/><path d="M 1402 755 L 1420 773 L 1402 773 Z" fill="#36958c" stroke="#36958c" stroke-width="1"/><text x="1220.0" y="798.0" class="label" text-anchor="middle">SHAP figures</text><text x="1220.0" y="816.0" class="file-format" text-anchor="middle">.pdf</text><path d="M530 921 L595 921" class="edge"/><path d="M955 921 L1020 921" class="edge"/><rect x="30" y="875" width="500" height="92" fill="#ffffff" stroke="#cbd5e1"/><text x="46" y="925" class="small" text-anchor="start">Benchmark tables (A)</text><rect x="595" y="875" width="360" height="92" rx="10" class="node" fill="#f8eaf2" stroke="#bc5c87" stroke-width="2.5"/><text x="775.0" y="918.0" class="label" text-anchor="middle">Plot performance and consensus</text><text x="775.0" y="936.0" class="small" text-anchor="middle">Benchmark predictions</text><path d="M 1020 875 H 1402 L 1420 893 V 967 H 1020 Z" class="node" fill="#ffffff" stroke="#36958c" stroke-width="2.5"/><path d="M 1402 875 L 1420 893 L 1402 893 Z" fill="#36958c" stroke="#36958c" stroke-width="1"/><text x="1220.0" y="918.0" class="label" text-anchor="middle">Performance + UpSet figures</text><text x="1220.0" y="936.0" class="file-format" text-anchor="middle">.pdf</text></g>
        <g transform="translate(315 0)"><rect x="35" y="1987" width="30" height="20" rx="5" fill="#e8f3ff" stroke="#3787c5" stroke-width="2"/><text x="75" y="2002" class="legend" text-anchor="start">Step</text><path d="M 145 1987 H 171 L 181 1997 V 2007 H 145 Z" fill="#fff" stroke="#3787c5" stroke-width="2"/><text x="191" y="2002" class="legend" text-anchor="start">File</text><path d="M 250 1987 H 276 L 286 1997 V 2007 H 250 Z" fill="#fff" stroke="#3787c5" stroke-width="2"/><path d="M 276 1987 L 286 1997 L 276 1997 Z" fill="#3787c5"/><text x="296" y="2002" class="legend" text-anchor="start">Produced file</text><path d="M 400 1997 H 450" class="edge"/><text x="460" y="2002" class="legend" text-anchor="start">Solid: dependency</text><circle cx="630" cy="1997" r="8" fill="#e8f3ff" stroke="#3787c5" stroke-width="2"/><text x="648" y="2002" class="legend" text-anchor="start">Color = workflow</text><rect x="810" y="1987" width="30" height="20" rx="5" fill="#f8eaf2" stroke="#bc5c87" stroke-width="2"/><text x="850" y="2002" class="legend" text-anchor="start">E: analysis steps</text><path d="M 1025 1987 H 1051 L 1061 1997 V 2007 H 1025 Z" fill="#fff" stroke="#36958c" stroke-width="2"/><path d="M 1051 1987 L 1061 1997 L 1051 1997 Z" fill="#36958c"/><text x="1071" y="2002" class="legend" text-anchor="start">E: files</text></g>
</svg>
