<svg xmlns="http://www.w3.org/2000/svg" width="1900" height="607"><rect width="100%" height="100%" fill="white"/><text x="25" y="30" font-family="Arial" font-size="20">V1 · Current</text><ns0:svg xmlns:ns0="http://www.w3.org/2000/svg" width="950" height="547" viewBox="0 945 1900 1095" x="0" y="50">
  <ns0:title>LNClassifier supplementary workflow DAGs</ns0:title>
  <ns0:desc>Independent benchmark above three feature-generation workflows. RNA outputs include rG4 detection and peak counts, plus ScanFold2 features; cross-workflow tables converge for downstream analyses and publication figures.</ns0:desc>
  <ns0:defs>
    <ns0:marker id="v0-arrow" markerWidth="8" markerHeight="8" refX="7" refY="3" orient="auto"><ns0:path d="M0,0 L7,3 L0,6 Z" fill="#64748b" /></ns0:marker>
    <ns0:style>
text{font-family:Inter,Arial,sans-serif;fill:#172033}
.title{font-size:28px;font-weight:700}
.subtitle,.panel-note{font-size:15px;fill:#526176}
.panel-title{font-size:20px;font-weight:700}
.node{stroke-width:2}
.label{font-size:15px;font-weight:600}
.small{font-size:14px;font-weight:400}
.file-format{font-family:ui-monospace,Consolas,monospace;font-size:14px;font-weight:400}
.edge{stroke:#64748b;stroke-width:2.5;fill:none;marker-end:url(#v0-arrow)}
.edge-dash{stroke:#64748b;stroke-width:2.5;stroke-dasharray:8 7;fill:none;marker-end:url(#v0-arrow)}
.legend{font-size:14px;fill:#526176}
</ns0:style>
  </ns0:defs>
  <ns0:rect width="1900" height="1840" fill="#ffffff" />
  <ns0:text x="70" y="58" class="title" text-anchor="start">LNClassifier workflow DAGs</ns0:text>
  <ns0:text x="70" y="86" class="subtitle" text-anchor="start">Benchmark and feature generation run independently; their outputs converge for downstream analysis and publication.</ns0:text>
    <ns0:text x="70" y="108" class="subtitle" text-anchor="start">Shared annotation and assembly for B–D: GENCODE v47 · GRCh38</ns0:text>
    <ns0:g transform="translate(231 120)"><ns0:rect width="1438" height="187" rx="18" fill="#fcfbff" stroke="#cbd5e1" /><ns0:text x="25" y="37" class="panel-title" text-anchor="start">A · Independent revision-wt benchmark</ns0:text><ns0:text x="25" y="60" class="panel-note" text-anchor="start">Classifier benchmark, run independently of feature generation.</ns0:text><ns0:path d="M335 126 L357 126" class="edge" /><ns0:path d="M607 126 L629 126" class="edge" /><ns0:path d="M785 126 L807 126" class="edge" /><ns0:path d="M973 126 L995 126" class="edge" /><ns0:path d="M1203 126 L1225 126" class="edge" /><ns0:path d="M 25 90 H 317 L 335 108 V 162 H 25 Z" class="node" fill="#ffffff" stroke="#8768c5" stroke-width="2.5" /><ns0:path d="M 317 90 V 108 H 335" fill="none" stroke="#8768c5" stroke-width="2.5" /><ns0:text x="180.0" y="113.0" class="label" text-anchor="middle">Transcript sequences</ns0:text><ns0:text x="180.0" y="133.0" class="label" text-anchor="middle">+ annotations</ns0:text><ns0:text x="180.0" y="151.0" class="file-format" text-anchor="middle">.fa + .gtf</ns0:text><ns0:rect x="357" y="90" width="250" height="72" rx="10" class="node" fill="#f0eaff" stroke="#8768c5" stroke-width="2.5" /><ns0:text x="482.0" y="123.0" class="label" text-anchor="middle">Prepare dataset</ns0:text><ns0:text x="482.0" y="141.0" class="small" text-anchor="middle">v46 vs v47; CD-HIT</ns0:text><ns0:rect x="629" y="90" width="156" height="72" rx="10" class="node" fill="#f0eaff" stroke="#8768c5" stroke-width="2.5" /><ns0:text x="707.0" y="123.0" class="label" text-anchor="middle">Train models</ns0:text><ns0:text x="707.0" y="141.0" class="small" text-anchor="middle">9 classifiers</ns0:text><ns0:rect x="807" y="90" width="166" height="72" rx="10" class="node" fill="#f0eaff" stroke="#8768c5" stroke-width="2.5" /><ns0:text x="890.0" y="123.0" class="label" text-anchor="middle">Run inference</ns0:text><ns0:text x="890.0" y="141.0" class="small" text-anchor="middle">9 classifiers</ns0:text><ns0:rect x="995" y="90" width="208" height="72" rx="10" class="node" fill="#f0eaff" stroke="#8768c5" stroke-width="2.5" /><ns0:text x="1099.0" y="123.0" class="label" text-anchor="middle">Process tables</ns0:text><ns0:text x="1099.0" y="141.0" class="small" text-anchor="middle">Merge and summarize</ns0:text><ns0:path d="M 1225 90 H 1395 L 1413 108 V 162 H 1225 Z" class="node" fill="#ffffff" stroke="#8768c5" stroke-width="2.5" /><ns0:path d="M 1395 90 L 1413 108 L 1395 108 Z" fill="#8768c5" stroke="#8768c5" stroke-width="1" /><ns0:text x="1319.0" y="123.0" class="label" text-anchor="middle">Benchmark tables</ns0:text><ns0:text x="1319.0" y="141.0" class="file-format" text-anchor="middle">.tsv</ns0:text></ns0:g><ns0:g transform="translate(255 335)"><ns0:rect width="330" height="586" rx="18" fill="#fbfdff" stroke="#cbd5e1" /><ns0:text x="25" y="37" class="panel-title" text-anchor="start">B · TE feature generation</ns0:text><ns0:text x="25" y="60" class="panel-note" text-anchor="start">RepeatMasker annotation and</ns0:text><ns0:text x="25" y="78" class="panel-note" text-anchor="start">TE feature extraction</ns0:text><ns0:path d="M165 177 L165 201" class="edge" /><ns0:path d="M165 273 L165 297" class="edge" /><ns0:path d="M165 369 L165 393" class="edge" /><ns0:path d="M165 465 L165 489" class="edge" /><ns0:path d="M 25 105 H 287 L 305 123 V 177 H 25 Z" class="node" fill="#ffffff" stroke="#3787c5" stroke-width="2.5" /><ns0:path d="M 287 105 V 123 H 305" fill="none" stroke="#3787c5" stroke-width="2.5" /><ns0:text x="165.0" y="128.0" class="label" text-anchor="middle">Sequences + annotations</ns0:text><ns0:text x="165.0" y="148.0" class="label" text-anchor="middle">(DNA + RNA)</ns0:text><ns0:text x="165.0" y="166.0" class="file-format" text-anchor="middle">.fa + .gtf</ns0:text><ns0:rect x="45" y="201" width="240" height="72" rx="10" class="node" fill="#e8f3ff" stroke="#3787c5" stroke-width="2.5" /><ns0:text x="165.0" y="234.0" class="label" text-anchor="middle">Validate FASTA</ns0:text><ns0:text x="165.0" y="252.0" class="small" text-anchor="middle">IDs, lengths, headers</ns0:text><ns0:rect x="45" y="297" width="240" height="72" rx="10" class="node" fill="#e8f3ff" stroke="#3787c5" stroke-width="2.5" /><ns0:text x="165.0" y="330.0" class="label" text-anchor="middle">Run RepeatMasker</ns0:text><ns0:text x="165.0" y="348.0" class="small" text-anchor="middle">Annotate repeats</ns0:text><ns0:rect x="45" y="393" width="240" height="72" rx="10" class="node" fill="#e8f3ff" stroke="#3787c5" stroke-width="2.5" /><ns0:text x="165.0" y="426.0" class="label" text-anchor="middle">Merge and summarize</ns0:text><ns0:text x="165.0" y="444.0" class="small" text-anchor="middle">Counts, coverage and stats</ns0:text><ns0:path d="M 35 489 H 277 L 295 507 V 561 H 35 Z" class="node" fill="#ffffff" stroke="#3787c5" stroke-width="2.5" /><ns0:path d="M 277 489 L 295 507 L 277 507 Z" fill="#3787c5" stroke="#3787c5" stroke-width="1" /><ns0:text x="165.0" y="522.0" class="label" text-anchor="middle">REP features</ns0:text><ns0:text x="165.0" y="540.0" class="file-format" text-anchor="middle">.csv</ns0:text></ns0:g><ns0:g transform="translate(625 335)"><ns0:rect width="330" height="586" rx="18" fill="#fbfffc" stroke="#cbd5e1" /><ns0:text x="25" y="37" class="panel-title" text-anchor="start">C · Non-B DNA features</ns0:text><ns0:text x="25" y="60" class="panel-note" text-anchor="start">Motif generation and</ns0:text><ns0:text x="25" y="78" class="panel-note" text-anchor="start">exon-level features</ns0:text><ns0:path d="M165 177 L165 201" class="edge" /><ns0:path d="M165 273 L165 297" class="edge" /><ns0:path d="M165 369 L165 393" class="edge" /><ns0:path d="M165 465 L165 489" class="edge" /><ns0:path d="M 25 105 H 287 L 305 123 V 177 H 25 Z" class="node" fill="#ffffff" stroke="#45a36b" stroke-width="2.5" /><ns0:path d="M 287 105 V 123 H 305" fill="none" stroke="#45a36b" stroke-width="2.5" /><ns0:text x="165.0" y="138.0" class="label" text-anchor="middle">Assembly + annotations</ns0:text><ns0:text x="165.0" y="156.0" class="file-format" text-anchor="middle">.fa + .gtf</ns0:text><ns0:rect x="45" y="201" width="240" height="72" rx="10" class="node" fill="#eaf8ef" stroke="#45a36b" stroke-width="2.5" /><ns0:text x="165.0" y="234.0" class="label" text-anchor="middle">Build annotation BEDs</ns0:text><ns0:text x="165.0" y="252.0" class="small" text-anchor="middle">transcript + exon BEDs</ns0:text><ns0:rect x="45" y="297" width="240" height="72" rx="10" class="node" fill="#eaf8ef" stroke="#45a36b" stroke-width="2.5" /><ns0:text x="165.0" y="320.0" class="label" text-anchor="middle">Run G4Discovery</ns0:text><ns0:text x="165.0" y="340.0" class="label" text-anchor="middle">and pqsfinder</ns0:text><ns0:text x="165.0" y="358.0" class="small" text-anchor="middle">Annotate 9 non-B DNA motifs</ns0:text><ns0:rect x="45" y="393" width="240" height="72" rx="10" class="node" fill="#eaf8ef" stroke="#45a36b" stroke-width="2.5" /><ns0:text x="165.0" y="426.0" class="label" text-anchor="middle">Intersect and summarize</ns0:text><ns0:text x="165.0" y="444.0" class="small" text-anchor="middle">Counts, coverage and stats</ns0:text><ns0:path d="M 35 489 H 277 L 295 507 V 561 H 35 Z" class="node" fill="#ffffff" stroke="#45a36b" stroke-width="2.5" /><ns0:path d="M 277 489 L 295 507 L 277 507 Z" fill="#45a36b" stroke="#45a36b" stroke-width="1" /><ns0:text x="165.0" y="522.0" class="label" text-anchor="middle">NBD features</ns0:text><ns0:text x="165.0" y="540.0" class="file-format" text-anchor="middle">.csv</ns0:text></ns0:g><ns0:g transform="translate(995 335)"><ns0:rect width="650" height="538" rx="18" fill="#fffdf9" stroke="#cbd5e1" /><ns0:text x="25" y="37" class="panel-title" text-anchor="start">D · RNA structure and rG4 analysis</ns0:text><ns0:text x="25" y="60" class="panel-note" text-anchor="start">Separate outputs: rG4detector features + ScanFold2 features</ns0:text><ns0:path d="M330 177 L330 213" class="edge" style="marker-end:none" /><ns0:path d="M165 213 L495 213" class="edge" style="marker-end:none" /><ns0:path d="M495 213 L495 249" class="edge" /><ns0:path d="M165 213 L165 249" class="edge" /><ns0:path d="M495 321 L495 345" class="edge" /><ns0:path d="M165 321 L165 345" class="edge" /><ns0:path d="M165 417 L165 441" class="edge" /><ns0:path d="M495 417 L495 441" class="edge" /><ns0:path d="M 190 105 H 452 L 470 123 V 177 H 190 Z" class="node" fill="#ffffff" stroke="#d58b2b" stroke-width="2.5" /><ns0:path d="M 452 105 V 123 H 470" fill="none" stroke="#d58b2b" stroke-width="2.5" /><ns0:text x="330.0" y="138.0" class="label" text-anchor="middle">Transcript FASTA</ns0:text><ns0:text x="330.0" y="156.0" class="file-format" text-anchor="middle">.fa</ns0:text><ns0:rect x="375" y="249" width="240" height="72" rx="10" class="node" fill="#fff2df" stroke="#d58b2b" stroke-width="2.5" /><ns0:text x="495.0" y="282.0" class="label" text-anchor="middle">Run rG4detector</ns0:text><ns0:text x="495.0" y="300.0" class="small" text-anchor="middle">rG4 per-nucleotide scores</ns0:text><ns0:rect x="45" y="249" width="240" height="72" rx="10" class="node" fill="#fff2df" stroke="#d58b2b" stroke-width="2.5" /><ns0:text x="165.0" y="282.0" class="label" text-anchor="middle">Run ScanFold2</ns0:text><ns0:text x="165.0" y="300.0" class="small" text-anchor="middle">RNA base-pair prediction</ns0:text><ns0:rect x="375" y="345" width="240" height="72" rx="10" class="node" fill="#fff2df" stroke="#d58b2b" stroke-width="2.5" /><ns0:text x="495.0" y="378.0" class="label" text-anchor="middle">Merge and summarize</ns0:text><ns0:text x="495.0" y="396.0" class="small" text-anchor="middle">rG4 peak counts and stats</ns0:text><ns0:rect x="45" y="345" width="240" height="72" rx="10" class="node" fill="#fff2df" stroke="#d58b2b" stroke-width="2.5" /><ns0:text x="165.0" y="378.0" class="label" text-anchor="middle">Merge and summarize</ns0:text><ns0:text x="165.0" y="396.0" class="small" text-anchor="middle">Summarize base pairs</ns0:text><ns0:path d="M 35 441 H 277 L 295 459 V 513 H 35 Z" class="node" fill="#ffffff" stroke="#d58b2b" stroke-width="2.5" /><ns0:path d="M 277 441 L 295 459 L 277 459 Z" fill="#d58b2b" stroke="#d58b2b" stroke-width="1" /><ns0:text x="165.0" y="474.0" class="label" text-anchor="middle">ScanFold2 features</ns0:text><ns0:text x="165.0" y="492.0" class="file-format" text-anchor="middle">.tsv</ns0:text><ns0:path d="M 365 441 H 607 L 625 459 V 513 H 365 Z" class="node" fill="#ffffff" stroke="#d58b2b" stroke-width="2.5" /><ns0:path d="M 607 441 L 625 459 L 607 459 Z" fill="#d58b2b" stroke="#d58b2b" stroke-width="1" /><ns0:text x="495.0" y="474.0" class="label" text-anchor="middle">rG4detector features</ns0:text><ns0:text x="495.0" y="492.0" class="file-format" text-anchor="middle">.csv</ns0:text></ns0:g><ns0:g transform="translate(225 965)"><ns0:rect width="1450" height="761" rx="18" fill="#f8fafc" stroke="#cbd5e1" /><ns0:text x="25" y="37" class="panel-title" text-anchor="start">E · Feature integration, analysis and publication files</ns0:text><ns0:text x="25" y="60" class="panel-note" text-anchor="start">TE, non-B DNA and rG4 features explain classifier uncertainty; they are not classifier inputs.</ns0:text><ns0:path d="M155 192 L155 224" class="edge" style="marker-end:none" /><ns0:path d="M440 192 L440 224" class="edge" style="marker-end:none" /><ns0:path d="M725 192 L725 224" class="edge" style="marker-end:none" /><ns0:path d="M1010 192 L1010 224" class="edge" style="marker-end:none" /><ns0:path d="M1295 192 L1295 224" class="edge" style="marker-end:none" /><ns0:path d="M155 224 L1295 224" class="edge" style="marker-end:none" /><ns0:path d="M725 224 L725 256" class="edge" /><ns0:path d="M725 328 L725 360" class="edge" style="marker-end:none" /><ns0:path d="M440 360 L1010 360" class="edge" style="marker-end:none" /><ns0:path d="M440 360 L440 392" class="edge" /><ns0:path d="M1010 360 L1010 392" class="edge" /><ns0:path d="M725 360 L725 392" class="edge" /><ns0:path d="M440 464 L440 496" class="edge" style="marker-end:none" /><ns0:path d="M1010 464 L1010 496" class="edge" style="marker-end:none" /><ns0:path d="M725 464 L725 496" class="edge" style="marker-end:none" /><ns0:path d="M440 496 L1010 496" class="edge" style="marker-end:none" /><ns0:path d="M535 496 L535 528" class="edge" /><ns0:path d="M155 600 L155 632" class="edge" style="marker-end:none" /><ns0:path d="M535 600 L535 632" class="edge" style="marker-end:none" /><ns0:path d="M915 600 L915 632" class="edge" style="marker-end:none" /><ns0:path d="M1295 600 L1295 632" class="edge" style="marker-end:none" /><ns0:path d="M155 632 L1295 632" class="edge" style="marker-end:none" /><ns0:path d="M725 632 L725 664" class="edge" /><ns0:path d="M320 428 L155 428 L155 528" class="edge" /><ns0:path d="M1130 428 L1146 428 L1146 564 L1045 564" class="edge" /><ns0:path d="M1425 156 L1441 156 L1441 564 L1425 564" class="edge" /><ns0:path d="M 25 120 H 267 L 285 138 V 192 H 25 Z" class="node" fill="#ffffff" stroke="#3787c5" stroke-width="2.5" /><ns0:path d="M 267 120 L 285 138 L 267 138 Z" fill="#3787c5" stroke="#3787c5" stroke-width="1" /><ns0:text x="155.0" y="153.0" class="label" text-anchor="middle">REP features</ns0:text><ns0:text x="155.0" y="171.0" class="file-format" text-anchor="middle">.csv</ns0:text><ns0:text x="155" y="108" class="small" text-anchor="middle">from B</ns0:text><ns0:path d="M 310 120 H 552 L 570 138 V 192 H 310 Z" class="node" fill="#ffffff" stroke="#45a36b" stroke-width="2.5" /><ns0:path d="M 552 120 L 570 138 L 552 138 Z" fill="#45a36b" stroke="#45a36b" stroke-width="1" /><ns0:text x="440.0" y="153.0" class="label" text-anchor="middle">NBD features</ns0:text><ns0:text x="440.0" y="171.0" class="file-format" text-anchor="middle">.csv</ns0:text><ns0:text x="440" y="108" class="small" text-anchor="middle">from C</ns0:text><ns0:path d="M 595 120 H 837 L 855 138 V 192 H 595 Z" class="node" fill="#ffffff" stroke="#d58b2b" stroke-width="2.5" /><ns0:path d="M 837 120 L 855 138 L 837 138 Z" fill="#d58b2b" stroke="#d58b2b" stroke-width="1" /><ns0:text x="725.0" y="153.0" class="label" text-anchor="middle">rG4detector features</ns0:text><ns0:text x="725.0" y="171.0" class="file-format" text-anchor="middle">.csv</ns0:text><ns0:text x="725" y="108" class="small" text-anchor="middle">from D</ns0:text><ns0:path d="M 880 120 H 1122 L 1140 138 V 192 H 880 Z" class="node" fill="#ffffff" stroke="#d58b2b" stroke-width="2.5" /><ns0:path d="M 1122 120 L 1140 138 L 1122 138 Z" fill="#d58b2b" stroke="#d58b2b" stroke-width="1" /><ns0:text x="1010.0" y="153.0" class="label" text-anchor="middle">ScanFold2 features</ns0:text><ns0:text x="1010.0" y="171.0" class="file-format" text-anchor="middle">.tsv</ns0:text><ns0:text x="1010" y="108" class="small" text-anchor="middle">from D</ns0:text><ns0:path d="M 1165 120 H 1407 L 1425 138 V 192 H 1165 Z" class="node" fill="#ffffff" stroke="#8768c5" stroke-width="2.5" /><ns0:path d="M 1407 120 L 1425 138 L 1407 138 Z" fill="#8768c5" stroke="#8768c5" stroke-width="1" /><ns0:text x="1295.0" y="153.0" class="label" text-anchor="middle">Benchmark tables</ns0:text><ns0:text x="1295.0" y="171.0" class="file-format" text-anchor="middle">.tsv</ns0:text><ns0:text x="1295" y="108" class="small" text-anchor="middle">from A</ns0:text><ns0:path d="M 595 256 H 837 L 855 274 V 328 H 595 Z" class="node" fill="#ffffff" stroke="#36958c" stroke-width="2.5" /><ns0:path d="M 837 256 L 855 274 L 837 274 Z" fill="#36958c" stroke="#36958c" stroke-width="1" /><ns0:text x="725.0" y="289.0" class="label" text-anchor="middle">Merged tables</ns0:text><ns0:text x="725.0" y="307.0" class="file-format" text-anchor="middle">.tsv</ns0:text><ns0:rect x="320" y="392" width="240" height="72" rx="10" class="node" fill="#f8eaf2" stroke="#bc5c87" stroke-width="2.5" /><ns0:text x="440.0" y="425.0" class="label" text-anchor="middle">Group by uncertainty</ns0:text><ns0:text x="440.0" y="443.0" class="small" text-anchor="middle">uncertainty groups</ns0:text><ns0:rect x="890" y="392" width="240" height="72" rx="10" class="node" fill="#f8eaf2" stroke="#bc5c87" stroke-width="2.5" /><ns0:text x="1010.0" y="425.0" class="label" text-anchor="middle">Cluster features</ns0:text><ns0:text x="1010.0" y="443.0" class="small" text-anchor="middle">feature correlations</ns0:text><ns0:path d="M 25 528 H 267 L 285 546 V 600 H 25 Z" class="node" fill="#ffffff" stroke="#36958c" stroke-width="2.5" /><ns0:path d="M 267 528 L 285 546 L 267 546 Z" fill="#36958c" stroke="#36958c" stroke-width="1" /><ns0:text x="155.0" y="561.0" class="label" text-anchor="middle">t-SNE figure</ns0:text><ns0:text x="155.0" y="579.0" class="file-format" text-anchor="middle">.pdf</ns0:text><ns0:path d="M 405 528 H 647 L 665 546 V 600 H 405 Z" class="node" fill="#ffffff" stroke="#36958c" stroke-width="2.5" /><ns0:path d="M 647 528 L 665 546 L 647 546 Z" fill="#36958c" stroke="#36958c" stroke-width="1" /><ns0:text x="535.0" y="561.0" class="label" text-anchor="middle">Entropy figures</ns0:text><ns0:text x="535.0" y="579.0" class="file-format" text-anchor="middle">.pdf</ns0:text><ns0:path d="M 785 528 H 1027 L 1045 546 V 600 H 785 Z" class="node" fill="#ffffff" stroke="#36958c" stroke-width="2.5" /><ns0:path d="M 1027 528 L 1045 546 L 1027 546 Z" fill="#36958c" stroke="#36958c" stroke-width="1" /><ns0:text x="915.0" y="561.0" class="label" text-anchor="middle">SHAP figures</ns0:text><ns0:text x="915.0" y="579.0" class="file-format" text-anchor="middle">.pdf</ns0:text><ns0:path d="M 1165 528 H 1407 L 1425 546 V 600 H 1165 Z" class="node" fill="#ffffff" stroke="#36958c" stroke-width="2.5" /><ns0:path d="M 1407 528 L 1425 546 L 1407 546 Z" fill="#36958c" stroke="#36958c" stroke-width="1" /><ns0:text x="1295.0" y="561.0" class="label" text-anchor="middle">Performance + UpSet figures</ns0:text><ns0:text x="1295.0" y="579.0" class="file-format" text-anchor="middle">.pdf</ns0:text><ns0:rect x="605" y="392" width="240" height="72" rx="10" class="node" fill="#f8eaf2" stroke="#bc5c87" stroke-width="2.5" /><ns0:text x="725.0" y="425.0" class="label" text-anchor="middle">Compare groups</ns0:text><ns0:text x="725.0" y="443.0" class="small" text-anchor="middle">group comparisons</ns0:text><ns0:path d="M 435 664 H 997 L 1015 682 V 736 H 435 Z" class="node" fill="#ffffff" stroke="#36958c" stroke-width="2.5" /><ns0:path d="M 997 664 L 1015 682 L 997 682 Z" fill="#36958c" stroke="#36958c" stroke-width="1" /><ns0:text x="725.0" y="697.0" class="label" text-anchor="middle">Publication figures, tables and supplementary analyses</ns0:text><ns0:text x="725.0" y="715.0" class="file-format" text-anchor="middle">.pdf + .png + .csv + .tsv</ns0:text></ns0:g>
        <ns0:g transform="translate(315 0)"><ns0:rect x="35" y="1751" width="30" height="20" rx="5" fill="#e8f3ff" stroke="#3787c5" stroke-width="2" /><ns0:text x="75" y="1766" class="legend" text-anchor="start">Step</ns0:text><ns0:path d="M 145 1751 H 171 L 181 1761 V 1771 H 145 Z" fill="#fff" stroke="#3787c5" stroke-width="2" /><ns0:text x="191" y="1766" class="legend" text-anchor="start">File</ns0:text><ns0:path d="M 250 1751 H 276 L 286 1761 V 1771 H 250 Z" fill="#fff" stroke="#3787c5" stroke-width="2" /><ns0:path d="M 276 1751 L 286 1761 L 276 1761 Z" fill="#3787c5" /><ns0:text x="296" y="1766" class="legend" text-anchor="start">Produced file</ns0:text><ns0:path d="M 400 1761 H 450" class="edge" /><ns0:text x="460" y="1766" class="legend" text-anchor="start">Solid: dependency</ns0:text><ns0:circle cx="630" cy="1761" r="8" fill="#e8f3ff" stroke="#3787c5" stroke-width="2" /><ns0:text x="648" y="1766" class="legend" text-anchor="start">Color = workflow</ns0:text><ns0:rect x="810" y="1751" width="30" height="20" rx="5" fill="#f8eaf2" stroke="#bc5c87" stroke-width="2" /><ns0:text x="850" y="1766" class="legend" text-anchor="start">E: analysis steps</ns0:text><ns0:path d="M 1025 1751 H 1051 L 1061 1761 V 1771 H 1025 Z" fill="#fff" stroke="#36958c" stroke-width="2" /><ns0:path d="M 1051 1751 L 1061 1761 L 1051 1761 Z" fill="#36958c" /><ns0:text x="1071" y="1766" class="legend" text-anchor="start">E: files</ns0:text></ns0:g>
</ns0:svg><text x="975" y="30" font-family="Arial" font-size="20">V2 · Explicit dependencies</text><ns0:svg xmlns:ns0="http://www.w3.org/2000/svg" width="950" height="547" viewBox="0 945 1900 1095" x="950" y="50">
  <ns0:title>LNClassifier supplementary workflow DAGs</ns0:title>
  <ns0:desc>Independent benchmark and feature-generation workflows followed by explicit input-to-analysis-to-output rows. Uncertainty uses benchmark tables; statistical testing requires uncertainty and clusters; embeddings and RF/SHAP are separate computations.</ns0:desc>
  <ns0:defs>
    <ns0:marker id="v1-arrow" markerWidth="8" markerHeight="8" refX="7" refY="3" orient="auto"><ns0:path d="M0,0 L7,3 L0,6 Z" fill="#64748b" /></ns0:marker>
    <ns0:style>
text{font-family:Inter,Arial,sans-serif;fill:#172033}
.title{font-size:28px;font-weight:700}
.subtitle,.panel-note{font-size:15px;fill:#526176}
.panel-title{font-size:20px;font-weight:700}
.node{stroke-width:2}
.label{font-size:15px;font-weight:600}
.small{font-size:14px;font-weight:400}
.file-format{font-family:ui-monospace,Consolas,monospace;font-size:14px;font-weight:400}
.edge{stroke:#64748b;stroke-width:2.5;fill:none;marker-end:url(#v1-arrow)}
.edge-dash{stroke:#64748b;stroke-width:2.5;stroke-dasharray:8 7;fill:none;marker-end:url(#v1-arrow)}
.legend{font-size:14px;fill:#526176}
</ns0:style>
  </ns0:defs>
  <ns0:rect width="1900" height="2040" fill="#ffffff" />
  <ns0:text x="70" y="58" class="title" text-anchor="start">LNClassifier workflow DAGs</ns0:text>
  <ns0:text x="70" y="86" class="subtitle" text-anchor="start">Benchmark and feature generation run independently; their outputs converge for downstream analysis and publication.</ns0:text>
    <ns0:text x="70" y="108" class="subtitle" text-anchor="start">Shared annotation and assembly for B–D: GENCODE v47 · GRCh38</ns0:text>
    <ns0:g transform="translate(231 120)"><ns0:rect width="1438" height="187" rx="18" fill="#fcfbff" stroke="#cbd5e1" /><ns0:text x="25" y="37" class="panel-title" text-anchor="start">A · Independent revision-wt benchmark</ns0:text><ns0:text x="25" y="60" class="panel-note" text-anchor="start">Classifier benchmark, run independently of feature generation.</ns0:text><ns0:path d="M335 126 L357 126" class="edge" /><ns0:path d="M607 126 L629 126" class="edge" /><ns0:path d="M785 126 L807 126" class="edge" /><ns0:path d="M973 126 L995 126" class="edge" /><ns0:path d="M1203 126 L1225 126" class="edge" /><ns0:path d="M 25 90 H 317 L 335 108 V 162 H 25 Z" class="node" fill="#ffffff" stroke="#8768c5" stroke-width="2.5" /><ns0:path d="M 317 90 V 108 H 335" fill="none" stroke="#8768c5" stroke-width="2.5" /><ns0:text x="180.0" y="113.0" class="label" text-anchor="middle">Transcript sequences</ns0:text><ns0:text x="180.0" y="133.0" class="label" text-anchor="middle">+ annotations</ns0:text><ns0:text x="180.0" y="151.0" class="file-format" text-anchor="middle">.fa + .gtf</ns0:text><ns0:rect x="357" y="90" width="250" height="72" rx="10" class="node" fill="#f0eaff" stroke="#8768c5" stroke-width="2.5" /><ns0:text x="482.0" y="123.0" class="label" text-anchor="middle">Prepare dataset</ns0:text><ns0:text x="482.0" y="141.0" class="small" text-anchor="middle">v46 vs v47; CD-HIT</ns0:text><ns0:rect x="629" y="90" width="156" height="72" rx="10" class="node" fill="#f0eaff" stroke="#8768c5" stroke-width="2.5" /><ns0:text x="707.0" y="123.0" class="label" text-anchor="middle">Train models</ns0:text><ns0:text x="707.0" y="141.0" class="small" text-anchor="middle">9 classifiers</ns0:text><ns0:rect x="807" y="90" width="166" height="72" rx="10" class="node" fill="#f0eaff" stroke="#8768c5" stroke-width="2.5" /><ns0:text x="890.0" y="123.0" class="label" text-anchor="middle">Run inference</ns0:text><ns0:text x="890.0" y="141.0" class="small" text-anchor="middle">9 classifiers</ns0:text><ns0:rect x="995" y="90" width="208" height="72" rx="10" class="node" fill="#f0eaff" stroke="#8768c5" stroke-width="2.5" /><ns0:text x="1099.0" y="123.0" class="label" text-anchor="middle">Process tables</ns0:text><ns0:text x="1099.0" y="141.0" class="small" text-anchor="middle">Merge and summarize</ns0:text><ns0:path d="M 1225 90 H 1395 L 1413 108 V 162 H 1225 Z" class="node" fill="#ffffff" stroke="#8768c5" stroke-width="2.5" /><ns0:path d="M 1395 90 L 1413 108 L 1395 108 Z" fill="#8768c5" stroke="#8768c5" stroke-width="1" /><ns0:text x="1319.0" y="123.0" class="label" text-anchor="middle">Benchmark tables</ns0:text><ns0:text x="1319.0" y="141.0" class="file-format" text-anchor="middle">.tsv</ns0:text></ns0:g><ns0:g transform="translate(255 335)"><ns0:rect width="330" height="586" rx="18" fill="#fbfdff" stroke="#cbd5e1" /><ns0:text x="25" y="37" class="panel-title" text-anchor="start">B · TE feature generation</ns0:text><ns0:text x="25" y="60" class="panel-note" text-anchor="start">RepeatMasker annotation and</ns0:text><ns0:text x="25" y="78" class="panel-note" text-anchor="start">TE feature extraction</ns0:text><ns0:path d="M165 177 L165 201" class="edge" /><ns0:path d="M165 273 L165 297" class="edge" /><ns0:path d="M165 369 L165 393" class="edge" /><ns0:path d="M165 465 L165 489" class="edge" /><ns0:path d="M 25 105 H 287 L 305 123 V 177 H 25 Z" class="node" fill="#ffffff" stroke="#3787c5" stroke-width="2.5" /><ns0:path d="M 287 105 V 123 H 305" fill="none" stroke="#3787c5" stroke-width="2.5" /><ns0:text x="165.0" y="128.0" class="label" text-anchor="middle">Sequences + annotations</ns0:text><ns0:text x="165.0" y="148.0" class="label" text-anchor="middle">(DNA + RNA)</ns0:text><ns0:text x="165.0" y="166.0" class="file-format" text-anchor="middle">.fa + .gtf</ns0:text><ns0:rect x="45" y="201" width="240" height="72" rx="10" class="node" fill="#e8f3ff" stroke="#3787c5" stroke-width="2.5" /><ns0:text x="165.0" y="234.0" class="label" text-anchor="middle">Validate FASTA</ns0:text><ns0:text x="165.0" y="252.0" class="small" text-anchor="middle">IDs, lengths, headers</ns0:text><ns0:rect x="45" y="297" width="240" height="72" rx="10" class="node" fill="#e8f3ff" stroke="#3787c5" stroke-width="2.5" /><ns0:text x="165.0" y="330.0" class="label" text-anchor="middle">Run RepeatMasker</ns0:text><ns0:text x="165.0" y="348.0" class="small" text-anchor="middle">Annotate repeats</ns0:text><ns0:rect x="45" y="393" width="240" height="72" rx="10" class="node" fill="#e8f3ff" stroke="#3787c5" stroke-width="2.5" /><ns0:text x="165.0" y="426.0" class="label" text-anchor="middle">Merge and summarize</ns0:text><ns0:text x="165.0" y="444.0" class="small" text-anchor="middle">Counts, coverage and stats</ns0:text><ns0:path d="M 35 489 H 277 L 295 507 V 561 H 35 Z" class="node" fill="#ffffff" stroke="#3787c5" stroke-width="2.5" /><ns0:path d="M 277 489 L 295 507 L 277 507 Z" fill="#3787c5" stroke="#3787c5" stroke-width="1" /><ns0:text x="165.0" y="522.0" class="label" text-anchor="middle">REP features</ns0:text><ns0:text x="165.0" y="540.0" class="file-format" text-anchor="middle">.csv</ns0:text></ns0:g><ns0:g transform="translate(625 335)"><ns0:rect width="330" height="586" rx="18" fill="#fbfffc" stroke="#cbd5e1" /><ns0:text x="25" y="37" class="panel-title" text-anchor="start">C · Non-B DNA features</ns0:text><ns0:text x="25" y="60" class="panel-note" text-anchor="start">Motif generation and</ns0:text><ns0:text x="25" y="78" class="panel-note" text-anchor="start">exon-level features</ns0:text><ns0:path d="M165 177 L165 201" class="edge" /><ns0:path d="M165 273 L165 297" class="edge" /><ns0:path d="M165 369 L165 393" class="edge" /><ns0:path d="M165 465 L165 489" class="edge" /><ns0:path d="M 25 105 H 287 L 305 123 V 177 H 25 Z" class="node" fill="#ffffff" stroke="#45a36b" stroke-width="2.5" /><ns0:path d="M 287 105 V 123 H 305" fill="none" stroke="#45a36b" stroke-width="2.5" /><ns0:text x="165.0" y="138.0" class="label" text-anchor="middle">Assembly + annotations</ns0:text><ns0:text x="165.0" y="156.0" class="file-format" text-anchor="middle">.fa + .gtf</ns0:text><ns0:rect x="45" y="201" width="240" height="72" rx="10" class="node" fill="#eaf8ef" stroke="#45a36b" stroke-width="2.5" /><ns0:text x="165.0" y="234.0" class="label" text-anchor="middle">Build annotation BEDs</ns0:text><ns0:text x="165.0" y="252.0" class="small" text-anchor="middle">transcript + exon BEDs</ns0:text><ns0:rect x="45" y="297" width="240" height="72" rx="10" class="node" fill="#eaf8ef" stroke="#45a36b" stroke-width="2.5" /><ns0:text x="165.0" y="320.0" class="label" text-anchor="middle">Run G4Discovery</ns0:text><ns0:text x="165.0" y="340.0" class="label" text-anchor="middle">and pqsfinder</ns0:text><ns0:text x="165.0" y="358.0" class="small" text-anchor="middle">Annotate 9 non-B DNA motifs</ns0:text><ns0:rect x="45" y="393" width="240" height="72" rx="10" class="node" fill="#eaf8ef" stroke="#45a36b" stroke-width="2.5" /><ns0:text x="165.0" y="426.0" class="label" text-anchor="middle">Intersect and summarize</ns0:text><ns0:text x="165.0" y="444.0" class="small" text-anchor="middle">Counts, coverage and stats</ns0:text><ns0:path d="M 35 489 H 277 L 295 507 V 561 H 35 Z" class="node" fill="#ffffff" stroke="#45a36b" stroke-width="2.5" /><ns0:path d="M 277 489 L 295 507 L 277 507 Z" fill="#45a36b" stroke="#45a36b" stroke-width="1" /><ns0:text x="165.0" y="522.0" class="label" text-anchor="middle">NBD features</ns0:text><ns0:text x="165.0" y="540.0" class="file-format" text-anchor="middle">.csv</ns0:text></ns0:g><ns0:g transform="translate(995 335)"><ns0:rect width="650" height="538" rx="18" fill="#fffdf9" stroke="#cbd5e1" /><ns0:text x="25" y="37" class="panel-title" text-anchor="start">D · RNA structure and rG4 analysis</ns0:text><ns0:text x="25" y="60" class="panel-note" text-anchor="start">Separate outputs: rG4detector features + ScanFold2 features</ns0:text><ns0:path d="M330 177 L330 213" class="edge" style="marker-end:none" /><ns0:path d="M165 213 L495 213" class="edge" style="marker-end:none" /><ns0:path d="M495 213 L495 249" class="edge" /><ns0:path d="M165 213 L165 249" class="edge" /><ns0:path d="M495 321 L495 345" class="edge" /><ns0:path d="M165 321 L165 345" class="edge" /><ns0:path d="M165 417 L165 441" class="edge" /><ns0:path d="M495 417 L495 441" class="edge" /><ns0:path d="M 190 105 H 452 L 470 123 V 177 H 190 Z" class="node" fill="#ffffff" stroke="#d58b2b" stroke-width="2.5" /><ns0:path d="M 452 105 V 123 H 470" fill="none" stroke="#d58b2b" stroke-width="2.5" /><ns0:text x="330.0" y="138.0" class="label" text-anchor="middle">Transcript FASTA</ns0:text><ns0:text x="330.0" y="156.0" class="file-format" text-anchor="middle">.fa</ns0:text><ns0:rect x="375" y="249" width="240" height="72" rx="10" class="node" fill="#fff2df" stroke="#d58b2b" stroke-width="2.5" /><ns0:text x="495.0" y="282.0" class="label" text-anchor="middle">Run rG4detector</ns0:text><ns0:text x="495.0" y="300.0" class="small" text-anchor="middle">rG4 per-nucleotide scores</ns0:text><ns0:rect x="45" y="249" width="240" height="72" rx="10" class="node" fill="#fff2df" stroke="#d58b2b" stroke-width="2.5" /><ns0:text x="165.0" y="282.0" class="label" text-anchor="middle">Run ScanFold2</ns0:text><ns0:text x="165.0" y="300.0" class="small" text-anchor="middle">RNA base-pair prediction</ns0:text><ns0:rect x="375" y="345" width="240" height="72" rx="10" class="node" fill="#fff2df" stroke="#d58b2b" stroke-width="2.5" /><ns0:text x="495.0" y="378.0" class="label" text-anchor="middle">Merge and summarize</ns0:text><ns0:text x="495.0" y="396.0" class="small" text-anchor="middle">rG4 peak counts and stats</ns0:text><ns0:rect x="45" y="345" width="240" height="72" rx="10" class="node" fill="#fff2df" stroke="#d58b2b" stroke-width="2.5" /><ns0:text x="165.0" y="378.0" class="label" text-anchor="middle">Merge and summarize</ns0:text><ns0:text x="165.0" y="396.0" class="small" text-anchor="middle">Summarize base pairs</ns0:text><ns0:path d="M 35 441 H 277 L 295 459 V 513 H 35 Z" class="node" fill="#ffffff" stroke="#d58b2b" stroke-width="2.5" /><ns0:path d="M 277 441 L 295 459 L 277 459 Z" fill="#d58b2b" stroke="#d58b2b" stroke-width="1" /><ns0:text x="165.0" y="474.0" class="label" text-anchor="middle">ScanFold2 features</ns0:text><ns0:text x="165.0" y="492.0" class="file-format" text-anchor="middle">.tsv</ns0:text><ns0:path d="M 365 441 H 607 L 625 459 V 513 H 365 Z" class="node" fill="#ffffff" stroke="#d58b2b" stroke-width="2.5" /><ns0:path d="M 607 441 L 625 459 L 607 459 Z" fill="#d58b2b" stroke="#d58b2b" stroke-width="1" /><ns0:text x="495.0" y="474.0" class="label" text-anchor="middle">rG4detector features</ns0:text><ns0:text x="495.0" y="492.0" class="file-format" text-anchor="middle">.csv</ns0:text></ns0:g><ns0:g transform="translate(225 965)"><ns0:rect width="1450" height="997" rx="18" fill="#f8fafc" stroke="#cbd5e1" /><ns0:text x="30" y="37" class="panel-title" text-anchor="start">E · Feature integration and downstream analysis</ns0:text><ns0:text x="30" y="62" class="panel-note" text-anchor="start">Supplementary features are used in downstream analysis and RF/SHAP, independently of benchmark classifier training.</ns0:text><ns0:text x="30" y="85" class="panel-note" text-anchor="start">Read each row left to right. Repeated input names refer to the same data; each input list contains separate artifacts.</ns0:text><ns0:text x="30" y="125" class="small" text-anchor="start">REQUIRED INPUTS · REFERENCES</ns0:text><ns0:text x="595" y="125" class="small" text-anchor="start">COMPUTATION</ns0:text><ns0:text x="1020" y="125" class="small" text-anchor="start">RESULTS</ns0:text><ns0:rect x="1006" y="493" width="428" height="488" rx="12" fill="#e8f4f2" /><ns0:text x="1028" y="509" class="small" text-anchor="start">Publication outputs</ns0:text><ns0:path d="M530 201 L595 201" class="edge" /><ns0:path d="M955 201 L1020 201" class="edge" /><ns0:rect x="30" y="155" width="500" height="92" fill="#ffffff" stroke="#cbd5e1" /><ns0:text x="46" y="196" class="small" text-anchor="start">REP (B), NBD (C), rG4 + ScanFold2 (D) features</ns0:text><ns0:text x="46" y="215" class="small" text-anchor="start">Benchmark transcript index (A; coverage check)</ns0:text><ns0:rect x="595" y="155" width="360" height="92" rx="10" class="node" fill="#f8eaf2" stroke="#bc5c87" stroke-width="2.5" /><ns0:text x="775.0" y="198.0" class="label" text-anchor="middle">Merge supplementary features</ns0:text><ns0:text x="775.0" y="216.0" class="small" text-anchor="middle">Clean features and check coverage</ns0:text><ns0:path d="M 1020 155 H 1402 L 1420 173 V 247 H 1020 Z" class="node" fill="#ffffff" stroke="#36958c" stroke-width="2.5" /><ns0:path d="M 1402 155 L 1420 173 L 1402 173 Z" fill="#36958c" stroke="#36958c" stroke-width="1" /><ns0:text x="1220.0" y="198.0" class="label" text-anchor="middle">Supplementary matrix</ns0:text><ns0:text x="1220.0" y="216.0" class="file-format" text-anchor="middle">.tsv</ns0:text><ns0:path d="M530 321 L595 321" class="edge" /><ns0:path d="M955 321 L1020 321" class="edge" /><ns0:rect x="30" y="275" width="500" height="92" fill="#ffffff" stroke="#cbd5e1" /><ns0:text x="46" y="325" class="small" text-anchor="start">Benchmark tables (A)</ns0:text><ns0:rect x="595" y="275" width="360" height="92" rx="10" class="node" fill="#f8eaf2" stroke="#bc5c87" stroke-width="2.5" /><ns0:text x="775.0" y="308.0" class="label" text-anchor="middle">Compute uncertainty</ns0:text><ns0:text x="775.0" y="328.0" class="label" text-anchor="middle">and define groups</ns0:text><ns0:text x="775.0" y="346.0" class="small" text-anchor="middle">Metrics and group assignments</ns0:text><ns0:path d="M 1020 275 H 1402 L 1420 293 V 367 H 1020 Z" class="node" fill="#ffffff" stroke="#36958c" stroke-width="2.5" /><ns0:path d="M 1402 275 L 1420 293 L 1402 293 Z" fill="#36958c" stroke="#36958c" stroke-width="1" /><ns0:text x="1220.0" y="318.0" class="label" text-anchor="middle">Uncertainty results</ns0:text><ns0:text x="1220.0" y="336.0" class="file-format" text-anchor="middle">.tsv · metrics + groups</ns0:text><ns0:path d="M530 441 L595 441" class="edge" /><ns0:path d="M955 441 L1020 441" class="edge" /><ns0:rect x="30" y="395" width="500" height="92" fill="#ffffff" stroke="#cbd5e1" /><ns0:text x="46" y="436" class="small" text-anchor="start">Benchmark tables (A)</ns0:text><ns0:text x="46" y="455" class="small" text-anchor="start">Supplementary matrix</ns0:text><ns0:rect x="595" y="395" width="360" height="92" rx="10" class="node" fill="#f8eaf2" stroke="#bc5c87" stroke-width="2.5" /><ns0:text x="775.0" y="438.0" class="label" text-anchor="middle">Cluster features</ns0:text><ns0:text x="775.0" y="456.0" class="small" text-anchor="middle">Correlations and feature selection</ns0:text><ns0:path d="M 1020 395 H 1402 L 1420 413 V 487 H 1020 Z" class="node" fill="#ffffff" stroke="#36958c" stroke-width="2.5" /><ns0:path d="M 1402 395 L 1420 413 L 1402 413 Z" fill="#36958c" stroke="#36958c" stroke-width="1" /><ns0:text x="1220.0" y="438.0" class="label" text-anchor="middle">Feature clusters</ns0:text><ns0:text x="1220.0" y="456.0" class="file-format" text-anchor="middle">.csv + .txt</ns0:text><ns0:path d="M530 561 L595 561" class="edge" /><ns0:path d="M955 561 L1020 561" class="edge" /><ns0:rect x="30" y="515" width="500" height="92" fill="#ffffff" stroke="#cbd5e1" /><ns0:text x="46" y="537" class="small" text-anchor="start">Benchmark tables (A)</ns0:text><ns0:text x="46" y="556" class="small" text-anchor="start">Supplementary matrix</ns0:text><ns0:text x="46" y="575" class="small" text-anchor="start">Uncertainty results</ns0:text><ns0:text x="46" y="594" class="small" text-anchor="start">Feature clusters</ns0:text><ns0:rect x="595" y="515" width="360" height="92" rx="10" class="node" fill="#f8eaf2" stroke="#bc5c87" stroke-width="2.5" /><ns0:text x="775.0" y="548.0" class="label" text-anchor="middle">Compare groups</ns0:text><ns0:text x="775.0" y="568.0" class="label" text-anchor="middle">and plot results</ns0:text><ns0:text x="775.0" y="586.0" class="small" text-anchor="middle">Statistical tests and entropy plots</ns0:text><ns0:path d="M 1020 515 H 1402 L 1420 533 V 607 H 1020 Z" class="node" fill="#ffffff" stroke="#36958c" stroke-width="2.5" /><ns0:path d="M 1402 515 L 1420 533 L 1402 533 Z" fill="#36958c" stroke="#36958c" stroke-width="1" /><ns0:text x="1220.0" y="558.0" class="label" text-anchor="middle">Entropy figures + statistical tables</ns0:text><ns0:text x="1220.0" y="576.0" class="file-format" text-anchor="middle">.pdf + .csv + .tsv</ns0:text><ns0:path d="M530 681 L595 681" class="edge" /><ns0:path d="M955 681 L1020 681" class="edge" /><ns0:rect x="30" y="635" width="500" height="92" fill="#ffffff" stroke="#cbd5e1" /><ns0:text x="46" y="666" class="small" text-anchor="start">Benchmark tables (A)</ns0:text><ns0:text x="46" y="685" class="small" text-anchor="start">Supplementary matrix</ns0:text><ns0:text x="46" y="704" class="small" text-anchor="start">Uncertainty results</ns0:text><ns0:rect x="595" y="635" width="360" height="92" rx="10" class="node" fill="#f8eaf2" stroke="#bc5c87" stroke-width="2.5" /><ns0:text x="775.0" y="668.0" class="label" text-anchor="middle">Compute embeddings</ns0:text><ns0:text x="775.0" y="688.0" class="label" text-anchor="middle">and plot t-SNE</ns0:text><ns0:text x="775.0" y="706.0" class="small" text-anchor="middle">Uncertainty annotates the plot</ns0:text><ns0:path d="M 1020 635 H 1402 L 1420 653 V 727 H 1020 Z" class="node" fill="#ffffff" stroke="#36958c" stroke-width="2.5" /><ns0:path d="M 1402 635 L 1420 653 L 1402 653 Z" fill="#36958c" stroke="#36958c" stroke-width="1" /><ns0:text x="1220.0" y="678.0" class="label" text-anchor="middle">t-SNE figure</ns0:text><ns0:text x="1220.0" y="696.0" class="file-format" text-anchor="middle">.pdf</ns0:text><ns0:path d="M530 801 L595 801" class="edge" /><ns0:path d="M955 801 L1020 801" class="edge" /><ns0:rect x="30" y="755" width="500" height="92" fill="#ffffff" stroke="#cbd5e1" /><ns0:text x="46" y="777" class="small" text-anchor="start">Benchmark tables (A)</ns0:text><ns0:text x="46" y="796" class="small" text-anchor="start">Supplementary matrix</ns0:text><ns0:text x="46" y="815" class="small" text-anchor="start">Feature clusters</ns0:text><ns0:text x="46" y="834" class="small" text-anchor="start">Dataset splits (A)</ns0:text><ns0:rect x="595" y="755" width="360" height="92" rx="10" class="node" fill="#f8eaf2" stroke="#bc5c87" stroke-width="2.5" /><ns0:text x="775.0" y="798.0" class="label" text-anchor="middle">Train RF and compute SHAP</ns0:text><ns0:text x="775.0" y="816.0" class="small" text-anchor="middle">Aggregate explanations and plot</ns0:text><ns0:path d="M 1020 755 H 1402 L 1420 773 V 847 H 1020 Z" class="node" fill="#ffffff" stroke="#36958c" stroke-width="2.5" /><ns0:path d="M 1402 755 L 1420 773 L 1402 773 Z" fill="#36958c" stroke="#36958c" stroke-width="1" /><ns0:text x="1220.0" y="798.0" class="label" text-anchor="middle">SHAP figures</ns0:text><ns0:text x="1220.0" y="816.0" class="file-format" text-anchor="middle">.pdf</ns0:text><ns0:path d="M530 921 L595 921" class="edge" /><ns0:path d="M955 921 L1020 921" class="edge" /><ns0:rect x="30" y="875" width="500" height="92" fill="#ffffff" stroke="#cbd5e1" /><ns0:text x="46" y="925" class="small" text-anchor="start">Benchmark tables (A)</ns0:text><ns0:rect x="595" y="875" width="360" height="92" rx="10" class="node" fill="#f8eaf2" stroke="#bc5c87" stroke-width="2.5" /><ns0:text x="775.0" y="918.0" class="label" text-anchor="middle">Plot performance and consensus</ns0:text><ns0:text x="775.0" y="936.0" class="small" text-anchor="middle">Benchmark predictions</ns0:text><ns0:path d="M 1020 875 H 1402 L 1420 893 V 967 H 1020 Z" class="node" fill="#ffffff" stroke="#36958c" stroke-width="2.5" /><ns0:path d="M 1402 875 L 1420 893 L 1402 893 Z" fill="#36958c" stroke="#36958c" stroke-width="1" /><ns0:text x="1220.0" y="918.0" class="label" text-anchor="middle">Performance + UpSet figures</ns0:text><ns0:text x="1220.0" y="936.0" class="file-format" text-anchor="middle">.pdf</ns0:text></ns0:g>
        <ns0:g transform="translate(315 0)"><ns0:rect x="35" y="1987" width="30" height="20" rx="5" fill="#e8f3ff" stroke="#3787c5" stroke-width="2" /><ns0:text x="75" y="2002" class="legend" text-anchor="start">Step</ns0:text><ns0:path d="M 145 1987 H 171 L 181 1997 V 2007 H 145 Z" fill="#fff" stroke="#3787c5" stroke-width="2" /><ns0:text x="191" y="2002" class="legend" text-anchor="start">File</ns0:text><ns0:path d="M 250 1987 H 276 L 286 1997 V 2007 H 250 Z" fill="#fff" stroke="#3787c5" stroke-width="2" /><ns0:path d="M 276 1987 L 286 1997 L 276 1997 Z" fill="#3787c5" /><ns0:text x="296" y="2002" class="legend" text-anchor="start">Produced file</ns0:text><ns0:path d="M 400 1997 H 450" class="edge" /><ns0:text x="460" y="2002" class="legend" text-anchor="start">Solid: dependency</ns0:text><ns0:circle cx="630" cy="1997" r="8" fill="#e8f3ff" stroke="#3787c5" stroke-width="2" /><ns0:text x="648" y="2002" class="legend" text-anchor="start">Color = workflow</ns0:text><ns0:rect x="810" y="1987" width="30" height="20" rx="5" fill="#f8eaf2" stroke="#bc5c87" stroke-width="2" /><ns0:text x="850" y="2002" class="legend" text-anchor="start">E: analysis steps</ns0:text><ns0:path d="M 1025 1987 H 1051 L 1061 1997 V 2007 H 1025 Z" fill="#fff" stroke="#36958c" stroke-width="2" /><ns0:path d="M 1051 1987 L 1061 1997 L 1051 1997 Z" fill="#36958c" /><ns0:text x="1071" y="2002" class="legend" text-anchor="start">E: files</ns0:text></ns0:g>
</ns0:svg></svg>
